<svg width="48" height="48" viewBox="0 0 48 48" fill="none" xmlns="http://www.w3.org/2000/svg">
<g id="fi_10720937" clip-path="url(#clip0_3_2254)">
<path id="Vector" d="M39.9219 30.9375C41.1625 30.9375 42.1719 31.9469 42.1719 33.1875C42.1719 34.4281 41.1625 35.4375 39.9219 35.4375C38.6813 35.4375 37.6719 34.4281 37.6719 33.1875C37.6719 31.9469 38.6813 30.9375 39.9219 30.9375ZM39.9219 33.9375C40.3354 33.9375 40.6719 33.601 40.6719 33.1875C40.6719 32.774 40.3354 32.4375 39.9219 32.4375C39.5083 32.4375 39.1719 32.774 39.1719 33.1875C39.1719 33.601 39.5083 33.9375 39.9219 33.9375Z" fill="#646A5E"/>
<path id="Vector_2" d="M28.8086 30.9375C30.0492 30.9375 31.0586 31.9469 31.0586 33.1875C31.0586 34.4281 30.0492 35.4375 28.8086 35.4375C27.568 35.4375 26.5586 34.4281 26.5586 33.1875C26.5586 31.9469 27.568 30.9375 28.8086 30.9375ZM28.8086 33.9375C29.2221 33.9375 29.5586 33.601 29.5586 33.1875C29.5586 32.774 29.2221 32.4375 28.8086 32.4375C28.3951 32.4375 28.0586 32.774 28.0586 33.1875C28.0586 33.601 28.3951 33.9375 28.8086 33.9375Z" fill="#646A5E"/>
<path id="Vector_3" d="M17.6914 30.9375C18.932 30.9375 19.9414 31.9469 19.9414 33.1875C19.9414 34.4281 18.932 35.4375 17.6914 35.4375C16.4508 35.4375 15.4414 34.4281 15.4414 33.1875C15.4414 31.9469 16.4508 30.9375 17.6914 30.9375ZM17.6914 33.9375C18.1049 33.9375 18.4414 33.601 18.4414 33.1875C18.4414 32.774 18.1049 32.4375 17.6914 32.4375C17.2779 32.4375 16.9414 32.774 16.9414 33.1875C16.9414 33.601 17.2779 33.9375 17.6914 33.9375Z" fill="#646A5E"/>
<path id="Vector_4" d="M6.57812 30.9375C7.81872 30.9375 8.82812 31.9469 8.82812 33.1875C8.82812 34.4281 7.81872 35.4375 6.57812 35.4375C5.33753 35.4375 4.32812 34.4281 4.32812 33.1875C4.32812 31.9469 5.33753 30.9375 6.57812 30.9375ZM6.57812 33.9375C6.99166 33.9375 7.32812 33.601 7.32812 33.1875C7.32812 32.774 6.99166 32.4375 6.57812 32.4375C6.16459 32.4375 5.82812 32.774 5.82812 33.1875C5.82812 33.601 6.16459 33.9375 6.57812 33.9375Z" fill="#646A5E"/>
<path id="Vector_5" d="M0.749847 20.5936H13.402L10.5547 18.6897C10.3465 18.5506 10.2215 18.3167 10.2215 18.0663V13.3125C10.2215 12.8983 10.5573 12.5625 10.9715 12.5625H12.4494L14.1598 9.90647C14.2979 9.69206 14.5354 9.5625 14.7904 9.5625H21.2824C21.6966 9.5625 22.0324 9.89831 22.0324 10.3125V12.6843L29.7423 14.0568C30.0037 14.1033 30.2209 14.2846 30.3137 14.5333L30.6341 15.3933L47.1165 12.4168C47.5249 12.343 47.9143 12.6141 47.9879 13.0216C48.0615 13.4293 47.7907 13.8194 47.3832 13.893L31.1662 16.8215L31.5324 17.8044C31.63 18.0665 31.5736 18.3611 31.3864 18.5686L29.5596 20.5936H37.0018C37.0559 20.5936 37.1098 20.5994 37.1628 20.6111L47.4108 22.8623C47.7548 22.9379 47.9998 23.2427 47.9998 23.5948V26.9643C47.9998 27.3785 47.664 27.7143 47.2498 27.7143H45.9349V28.357C45.9349 28.5064 45.8903 28.6522 45.8069 28.7761L44.5295 30.6724C44.9391 31.4197 45.1725 32.2767 45.1725 33.1874C45.1725 36.0823 42.8174 38.4374 39.9225 38.4374C38.0126 38.4374 36.3381 37.412 35.4194 35.883H33.3105C32.3919 37.412 30.7174 38.4374 28.8074 38.4374C26.8975 38.4374 25.223 37.412 24.3043 35.883H22.1954C21.2768 37.412 19.6023 38.4374 17.6923 38.4374C15.7824 38.4374 14.1079 37.412 13.1893 35.883H11.0804C10.1618 37.412 8.48732 38.4374 6.57735 38.4374C3.68244 38.4374 1.32735 36.0823 1.32735 33.1874C1.32735 32.6206 1.41875 32.0751 1.58572 31.5633L0.0653763 28.1694C0.0221596 28.0731 -0.000152588 27.9684 -0.000152588 27.8628V21.3434C-0.000152588 20.9292 0.335659 20.5934 0.749847 20.5934V20.5936ZM20.5324 11.0625H15.1994L14.2334 12.5625H20.5324V11.0625ZM29.1428 18.8163H19.1924C18.7783 18.8163 18.4424 18.4805 18.4424 18.0663C18.4424 17.6521 18.7783 17.3163 19.1924 17.3163H29.7497L29.0576 15.4584L21.2162 14.0625H11.7215V17.3163H16.1923C16.6065 17.3163 16.9423 17.6521 16.9423 18.0663C16.9423 18.4805 16.6065 18.8163 16.1923 18.8163H13.4424L16.1004 20.5936H27.5393L29.1427 18.8163H29.1428ZM39.9224 36.9375C41.9902 36.9375 43.6724 35.2552 43.6724 33.1875C43.6724 31.1198 41.9902 29.4375 39.9224 29.4375C37.8547 29.4375 36.1724 31.1198 36.1724 33.1875C36.1724 35.2552 37.8547 36.9375 39.9224 36.9375ZM28.8073 36.9375C30.8751 36.9375 32.5573 35.2552 32.5573 33.1875C32.5573 31.1198 30.8751 29.4375 28.8073 29.4375C26.7396 29.4375 25.0573 31.1198 25.0573 33.1875C25.0573 35.2552 26.7396 36.9375 28.8073 36.9375ZM17.6923 36.9375C19.76 36.9375 21.4423 35.2552 21.4423 33.1875C21.4423 31.1198 19.76 29.4375 17.6923 29.4375C15.6245 29.4375 13.9423 31.1198 13.9423 33.1875C13.9423 35.2552 15.6245 36.9375 17.6923 36.9375ZM12.5812 34.3831C12.4913 33.9987 12.4423 33.5989 12.4423 33.1875C12.4423 30.2926 14.7973 27.9375 17.6923 27.9375C20.5872 27.9375 22.9423 30.2926 22.9423 33.1875C22.9423 33.5989 22.8932 33.9987 22.8033 34.3831H23.6963C23.6064 33.9987 23.5573 33.5989 23.5573 33.1875C23.5573 30.2926 25.9124 27.9375 28.8073 27.9375C31.7023 27.9375 34.0573 30.2926 34.0573 33.1875C34.0573 33.5989 34.0083 33.9987 33.9184 34.3831H34.8114C34.7215 33.9987 34.6724 33.5989 34.6724 33.1875C34.6724 30.2926 37.0275 27.9375 39.9224 27.9375C41.3377 27.9375 42.6229 28.5013 43.568 29.4149L43.6587 29.2803L40.6986 26.3981H35.2025V28.3728C35.2025 28.787 34.8667 29.1228 34.4525 29.1228C34.0383 29.1228 33.7025 28.787 33.7025 28.3728V26.3981H30.3502C29.936 26.3981 29.6002 26.0623 29.6002 25.6481C29.6002 25.2339 29.936 24.8981 30.3502 24.8981H41.0034C41.1988 24.8981 41.3865 24.9743 41.5266 25.1108L44.4348 27.9426V26.9645C44.4348 26.5503 44.7706 26.2145 45.1848 26.2145H46.4998V24.1981L36.9203 22.0937H1.49985V27.7028L1.841 28.4644L3.77619 25.2606C3.91194 25.0358 4.1555 24.8983 4.41819 24.8983H27.3502C27.7644 24.8983 28.1002 25.2341 28.1002 25.6483C28.1002 26.0625 27.7644 26.3983 27.3502 26.3983H23.9979V28.373C23.9979 28.7872 23.6621 29.123 23.2479 29.123C22.8337 29.123 22.4979 28.7872 22.4979 28.373V26.3983H12.7933V28.373C12.7933 28.7872 12.4574 29.123 12.0433 29.123C11.6291 29.123 11.2933 28.7872 11.2933 28.373V26.3983H4.84128L3.12791 29.2349C4.05125 28.4281 5.25772 27.9377 6.57735 27.9377C9.47225 27.9377 11.8273 30.2928 11.8273 33.1877C11.8273 33.5991 11.7783 33.9989 11.6884 34.3833H12.5813L12.5812 34.3831ZM6.57725 36.9375C8.645 36.9375 10.3273 35.2552 10.3273 33.1875C10.3273 31.1198 8.645 29.4375 6.57725 29.4375C4.5095 29.4375 2.82725 31.1198 2.82725 33.1875C2.82725 35.2552 4.5095 36.9375 6.57725 36.9375Z" fill="#646A5E"/>
</g>
<defs>
<clipPath id="clip0_3_2254">
<rect width="48" height="48" fill="white" transform="matrix(-1 0 0 1 48 0)"/>
</clipPath>
</defs>
</svg>
