<svg width="48" height="48" viewBox="0 0 48 48" fill="none" xmlns="http://www.w3.org/2000/svg">
<g id="fi_4611140">
<g id="Group">
<g id="Page-1_30_">
<g id="_x30_31---Medal">
<path id="Shape_72_" d="M7.1993 11.4342C7.19394 13.0716 8.19157 14.5454 9.71383 15.1488L22.1304 20.1146C21.6025 20.7532 21.4563 21.6253 21.7472 22.4011H19.5119C19.0155 22.4027 18.5494 22.6403 18.2566 23.0412C17.9227 23.4964 17.8217 24.082 17.9838 24.6229L19.4527 29.6231C19.0758 29.9303 18.7311 30.2751 18.4238 30.652L13.4268 29.1839C12.885 29.022 12.2987 29.1226 11.8419 29.4559C11.4396 29.7488 11.2009 30.2159 11.1995 30.7136V39.69C11.201 40.1863 11.4387 40.6524 11.8395 40.9452C12.1476 41.1721 12.5202 41.294 12.9028 41.2932C13.0783 41.2932 13.253 41.2679 13.4213 41.2181L18.4215 39.7492C18.7287 40.126 19.0735 40.4707 19.4504 40.7781L17.9823 45.7751C17.8191 46.3168 17.9198 46.9036 18.2543 47.3599C18.5472 47.7607 19.0132 47.9983 19.5096 48H28.4884C28.9848 47.9984 29.4509 47.7608 29.7437 47.3599C30.0776 46.9047 30.1786 46.3191 30.0165 45.7782L28.5476 40.778C28.9245 40.4707 29.2692 40.126 29.5765 39.7491L34.5735 41.2172C34.7432 41.267 34.9191 41.2924 35.096 41.2924C35.4782 41.2936 35.8507 41.1719 36.1584 40.9451C36.5601 40.6528 36.7987 40.1867 36.8008 39.6899V30.7135C36.7993 30.2171 36.5616 29.7511 36.1608 29.4582C35.7056 29.1241 35.1199 29.0231 34.5791 29.1854L29.5788 30.6543C29.2716 30.2774 28.9269 29.9327 28.5499 29.6254L30.018 24.6284C30.1812 24.0867 30.0805 23.4998 29.746 23.0435C29.4531 22.6412 28.986 22.4025 28.4883 22.4011H26.253C26.5438 21.6253 26.3977 20.7532 25.8697 20.1146L38.2863 15.1488C39.8087 14.5455 40.8064 13.0717 40.8009 11.4342V3.20019C40.8009 1.43273 39.3682 0 37.6007 0H10.3994C8.63203 0 7.19922 1.43273 7.19922 3.20019L7.1993 11.4342ZM18.3998 16.8992V1.60006H29.6004V16.8992L24.0001 19.1393L18.3998 16.8992ZM29.6004 35.2018C29.6004 38.2947 27.093 40.8021 24.0001 40.8021C20.9071 40.8021 18.3998 38.2947 18.3998 35.2018C18.3998 32.1088 20.9071 29.6015 24.0001 29.6015C27.0916 29.605 29.5968 32.1102 29.6004 35.2018ZM12.9691 39.6819C12.946 39.6886 12.922 39.6922 12.898 39.6923C12.8387 39.6923 12.8012 39.6739 12.7995 39.6883L12.7891 30.7479C12.8412 30.7073 12.9104 30.6965 12.9724 30.7191L17.5326 32.0583C16.5576 34.0394 16.5576 36.3608 17.5326 38.3419L12.9691 39.6819ZM28.4803 46.2327C28.5091 46.3295 28.4651 46.4015 28.4867 46.4023L19.5463 46.4127C19.5059 46.3607 19.495 46.2914 19.5175 46.2295L20.8567 41.6692C22.8378 42.6442 25.1592 42.6442 27.1403 41.6692L28.4803 46.2327ZM35.031 30.7215C35.0542 30.7148 35.0781 30.7113 35.1022 30.7111C35.1614 30.7111 35.199 30.7303 35.2006 30.7151L35.211 39.6556C35.1594 39.6969 35.0897 39.7078 35.0278 39.6844L30.4675 38.3451C31.4426 36.364 31.4426 34.0426 30.4675 32.0616L35.031 30.7215ZM28.4803 24.174L27.1411 28.7342C25.16 27.7592 22.8386 27.7592 20.8575 28.7342L19.5175 24.174C19.4886 24.0772 19.5327 24.0052 19.5111 24.0044L23.9497 23.9996C23.9665 23.9996 23.9825 24.0044 23.9993 24.0044C24.0161 24.0044 24.0329 23.9996 24.0505 23.9996L28.4507 23.994C28.4902 24.0452 28.5014 24.1128 28.4803 24.174ZM23.2001 21.6011C23.2001 21.1592 23.5583 20.801 24.0002 20.801C24.442 20.801 24.8002 21.1592 24.8002 21.6011C24.8002 22.043 24.442 22.4012 24.0002 22.4012C23.5583 22.4012 23.2001 22.0429 23.2001 21.6011ZM39.2009 3.20019V11.4342C39.2043 12.4166 38.6055 13.3007 37.692 13.6622L31.2004 16.2591V1.60006H37.6007C38.4844 1.60006 39.2009 2.31642 39.2009 3.20019ZM8.79935 3.20019C8.79935 2.3165 9.51572 1.60013 10.3994 1.60013H16.7997V16.2593L10.3081 13.6624C9.39462 13.3009 8.79589 12.4167 8.79927 11.4343L8.79935 3.20019Z" fill="#646A5E"/>
</g>
</g>
</g>
</g>
</svg>
