<svg width="48" height="48" viewBox="0 0 48 48" fill="none" xmlns="http://www.w3.org/2000/svg">
<g id="fi_4655245">
<g id="Layer 56">
<path id="Vector" d="M11.0777 37.4496C11.6196 37.0186 12.014 36.4297 12.2063 35.7646C12.3986 35.0994 12.3793 34.3909 12.1511 33.7372C11.9228 33.0836 11.4969 32.517 10.9324 32.1162C10.3678 31.7153 9.69255 31.5 9.00016 31.5C8.30777 31.5 7.63251 31.7153 7.06796 32.1162C6.5034 32.517 6.07749 33.0836 5.84923 33.7372C5.62097 34.3909 5.60167 35.0994 5.794 35.7646C5.98633 36.4297 6.38076 37.0186 6.92266 37.4496C5.38365 37.9685 4.07191 39.0045 3.21049 40.3814C2.34908 41.7583 1.99118 43.3911 2.19766 45.0021C2.19766 45.201 2.27668 45.3917 2.41733 45.5324C2.55798 45.6731 2.74875 45.7521 2.94766 45.7521H15.0527C15.2516 45.7521 15.4423 45.6731 15.583 45.5324C15.7236 45.3917 15.8027 45.201 15.8027 45.0021V43.9221C15.8016 42.482 15.3435 41.0793 14.4944 39.9162C13.6453 38.753 12.449 37.8894 11.0777 37.4496ZM9.00016 33.0021C9.48948 33.0021 9.95877 33.1965 10.3048 33.5425C10.6508 33.8885 10.8452 34.3577 10.8452 34.8471C10.8452 35.3364 10.6508 35.8057 10.3048 36.1517C9.95877 36.4977 9.48948 36.6921 9.00016 36.6921C8.51083 36.6921 8.04155 36.4977 7.69555 36.1517C7.34954 35.8057 7.15516 35.3364 7.15516 34.8471C7.15516 34.3577 7.34954 33.8885 7.69555 33.5425C8.04155 33.1965 8.51083 33.0021 9.00016 33.0021ZM14.3027 44.2521H3.69766C3.61516 36.7971 14.3927 36.8046 14.3027 44.2521Z" fill="#646A5E"/>
<path id="Vector_2" d="M41.0777 37.4496C41.6196 37.0186 42.014 36.4297 42.2063 35.7646C42.3986 35.0994 42.3793 34.3909 42.1511 33.7372C41.9228 33.0836 41.4969 32.517 40.9324 32.1162C40.3678 31.7153 39.6925 31.5 39.0002 31.5C38.3078 31.5 37.6325 31.7153 37.068 32.1162C36.5034 32.517 36.0775 33.0836 35.8492 33.7372C35.621 34.3909 35.6017 35.0994 35.794 35.7646C35.9863 36.4297 36.3808 37.0186 36.9227 37.4496C35.3836 37.9685 34.0719 39.0045 33.2105 40.3814C32.3491 41.7583 31.9912 43.3911 32.1977 45.0021C32.1977 45.201 32.2767 45.3917 32.4173 45.5324C32.558 45.6731 32.7487 45.7521 32.9477 45.7521H45.0527C45.2516 45.7521 45.4423 45.6731 45.583 45.5324C45.7236 45.3917 45.8027 45.201 45.8027 45.0021V43.9221C45.8016 42.482 45.3435 41.0793 44.4944 39.9162C43.6453 38.753 42.449 37.8894 41.0777 37.4496ZM39.0002 33.0021C39.4895 33.0021 39.9588 33.1965 40.3048 33.5425C40.6508 33.8885 40.8452 34.3577 40.8452 34.8471C40.8452 35.3364 40.6508 35.8057 40.3048 36.1517C39.9588 36.4977 39.4895 36.6921 39.0002 36.6921C38.5108 36.6921 38.0416 36.4977 37.6955 36.1517C37.3495 35.8057 37.1552 35.3364 37.1552 34.8471C37.1552 34.3577 37.3495 33.8885 37.6955 33.5425C38.0416 33.1965 38.5108 33.0021 39.0002 33.0021ZM44.3027 44.2521H33.6977C33.6152 36.7971 44.3927 36.8046 44.3027 44.2521Z" fill="#646A5E"/>
<path id="Vector_3" d="M26.0777 37.4496C26.6196 37.0186 27.014 36.4297 27.2063 35.7646C27.3986 35.0994 27.3793 34.3909 27.1511 33.7372C26.9228 33.0836 26.4969 32.517 25.9324 32.1162C25.3678 31.7153 24.6925 31.5 24.0002 31.5C23.3078 31.5 22.6325 31.7153 22.068 32.1162C21.5034 32.517 21.0775 33.0836 20.8492 33.7372C20.621 34.3909 20.6017 35.0994 20.794 35.7646C20.9863 36.4297 21.3808 37.0186 21.9227 37.4496C20.3836 37.9685 19.0719 39.0045 18.2105 40.3814C17.3491 41.7583 16.9912 43.3911 17.1977 45.0021C17.1977 45.201 17.2767 45.3917 17.4173 45.5324C17.558 45.6731 17.7487 45.7521 17.9477 45.7521H30.0527C30.2516 45.7521 30.4423 45.6731 30.583 45.5324C30.7236 45.3917 30.8027 45.201 30.8027 45.0021V43.9221C30.8016 42.482 30.3435 41.0793 29.4944 39.9162C28.6453 38.753 27.449 37.8894 26.0777 37.4496ZM24.0002 33.0021C24.4895 33.0021 24.9588 33.1965 25.3048 33.5425C25.6508 33.8885 25.8452 34.3577 25.8452 34.8471C25.8452 35.3364 25.6508 35.8057 25.3048 36.1517C24.9588 36.4977 24.4895 36.6921 24.0002 36.6921C23.5108 36.6921 23.0416 36.4977 22.6955 36.1517C22.3495 35.8057 22.1552 35.3364 22.1552 34.8471C22.1552 34.3577 22.3495 33.8885 22.6955 33.5425C23.0416 33.1965 23.5108 33.0021 24.0002 33.0021ZM29.3027 44.2521H18.6977C18.6152 36.7971 29.3927 36.8046 29.3027 44.2521Z" fill="#646A5E"/>
<path id="Vector_4" d="M17.9492 17.2521H30.0542C30.2531 17.2521 30.4439 17.1731 30.5845 17.0324C30.7252 16.8917 30.8042 16.701 30.8042 16.5021C31.0107 14.8911 30.6528 13.2583 29.7914 11.8814C28.93 10.5045 27.6182 9.46853 26.0792 8.94957C26.6211 8.51857 27.0156 7.92971 27.2079 7.26457C27.4002 6.59942 27.3809 5.89093 27.1526 5.23724C26.9244 4.58356 26.4985 4.01704 25.9339 3.61619C25.3694 3.21534 24.6941 3 24.0017 3C23.3093 3 22.6341 3.21534 22.0695 3.61619C21.505 4.01704 21.079 4.58356 20.8508 5.23724C20.6225 5.89093 20.6032 6.59942 20.7956 7.26457C20.9879 7.92971 21.3823 8.51857 21.9242 8.94957C20.5529 9.38938 19.3566 10.253 18.5075 11.4162C17.6583 12.5793 17.2003 13.982 17.1992 15.4221V16.5021C17.1992 16.701 17.2782 16.8917 17.4189 17.0324C17.5595 17.1731 17.7503 17.2521 17.9492 17.2521ZM24.0017 4.50207C24.491 4.50207 24.9603 4.69645 25.3063 5.04246C25.6523 5.38846 25.8467 5.85774 25.8467 6.34707C25.8467 6.83639 25.6523 7.30568 25.3063 7.65168C24.9603 7.99768 24.491 8.19207 24.0017 8.19207C23.5124 8.19207 23.0431 7.99768 22.6971 7.65168C22.3511 7.30568 22.1567 6.83639 22.1567 6.34707C22.1567 5.85774 22.3511 5.38846 22.6971 5.04246C23.0431 4.69645 23.5124 4.50207 24.0017 4.50207ZM18.6992 15.4221C18.9992 8.19207 29.4317 8.52207 29.3042 15.7521H18.6992V15.4221Z" fill="#646A5E"/>
<path id="Vector_5" d="M9 30.7539C9.19891 30.7539 9.38968 30.6749 9.53033 30.5342C9.67098 30.3936 9.75 30.2028 9.75 30.0039V24.7539H23.25V29.2539C23.25 29.4528 23.329 29.6436 23.4697 29.7842C23.6103 29.9249 23.8011 30.0039 24 30.0039C24.1989 30.0039 24.3897 29.9249 24.5303 29.7842C24.671 29.6436 24.75 29.4528 24.75 29.2539V24.7539H38.25V30.0039C38.25 30.2028 38.329 30.3936 38.4697 30.5342C38.6103 30.6749 38.8011 30.7539 39 30.7539C39.1989 30.7539 39.3897 30.6749 39.5303 30.5342C39.671 30.3936 39.75 30.2028 39.75 30.0039V24.0039C39.75 23.805 39.671 23.6142 39.5303 23.4736C39.3897 23.3329 39.1989 23.2539 39 23.2539H24.75V18.7539C24.75 18.555 24.671 18.3642 24.5303 18.2236C24.3897 18.0829 24.1989 18.0039 24 18.0039C23.8011 18.0039 23.6103 18.0829 23.4697 18.2236C23.329 18.3642 23.25 18.555 23.25 18.7539V23.2539H9C8.80109 23.2539 8.61032 23.3329 8.46967 23.4736C8.32902 23.6142 8.25 23.805 8.25 24.0039V30.0039C8.25 30.2028 8.32902 30.3936 8.46967 30.5342C8.61032 30.6749 8.80109 30.7539 9 30.7539Z" fill="#646A5E"/>
</g>
</g>
</svg>
