<svg width="44" height="44" viewBox="0 0 44 44" fill="none" xmlns="http://www.w3.org/2000/svg">
<g id="Group 1000001656">
<g id="Group 1000001654">
<circle id="Ellipse 1457" cx="22" cy="22" r="21.5" stroke="white"/>
<path id="Vector" d="M16 15.0002C13.7909 15.0002 12 16.7912 12 19.0002V25.0002C12 27.2092 13.7909 29.0002 16 29.0002H28C30.2091 29.0002 32 27.2092 32 25.0002V19.0002C32 16.7912 30.2091 15.0002 28 15.0002H16ZM20.7143 19.0002C20.8386 19.0002 20.9473 19.0352 21.0491 19.0942C21.107 19.1272 24.6699 21.3262 24.7991 21.4612C24.9288 21.5972 25 21.7922 25 22.0002C25 22.1322 24.9674 22.2442 24.9107 22.3522C24.8645 22.4392 24.8065 22.5242 24.7321 22.5862C24.6105 22.6872 21.0266 24.9212 20.9375 24.9532C20.8647 24.9792 20.7955 25.0002 20.7143 25.0002C20.5358 25.0002 20.3707 24.9262 20.2455 24.8122C20.094 24.6752 20 24.4772 20 24.2502C20 24.0452 20 19.9542 20 19.7502C20 19.3362 20.3198 19.0002 20.7143 19.0002Z" fill="white"/>
</g>
</g>
</svg>
