<svg width="44" height="44" viewBox="0 0 44 44" fill="none" xmlns="http://www.w3.org/2000/svg">
<g id="Group 1000001657">
<g id="Group 1000001654">
<circle id="Ellipse 1457" cx="22" cy="22" r="21.5" stroke="white"/>
<path id="Vector" d="M24.999 12.9998C22.099 12.9955 19.999 15.5663 19.999 18.2939C19.999 18.2939 17.349 17.829 14.844 15.4795C14.448 15.1079 14.046 15.1174 13.999 15.1174C13.474 15.1174 12.998 15.5748 12.999 16.1762C13 16.6061 12.999 18.4432 12.999 18.9281C12.999 20.1394 13.366 21.1749 13.954 22.0273C13.954 22.0358 13.954 22.0241 13.954 22.9337C13.954 24.5547 14.541 25.7893 15.636 26.4373C15.344 26.8926 14.626 27.2991 13.996 27.5511C13.578 27.7195 13.198 27.8201 13.008 27.8223C12.445 27.8307 12.003 28.3284 12 28.8842C11.997 29.4391 12.364 29.7122 12.602 29.8806C12.99 30.1559 13.503 30.3211 13.996 30.4725C15.147 30.8251 16.39 30.9998 17.678 30.9998C24.033 30.9998 29.274 25.9608 29.934 19.4014C29.934 19.4014 30.152 18.6846 30.679 18.0408C31.207 17.397 31.999 16.9079 31.999 16.9079L30.084 16.8624L31.335 15.0073C31.335 15.0073 29.28 15.4636 28.999 15.1174C28.07 13.7738 26.438 13.0019 24.999 12.9998ZM26.999 16.1762C27.551 16.1762 27.999 16.6495 27.999 17.2329C27.999 17.8174 27.551 18.2907 26.999 18.2907C26.447 18.2907 25.999 17.8174 25.999 17.2329C25.999 16.6495 26.447 16.1762 26.999 16.1762Z" fill="white"/>
</g>
</g>
</svg>
