<svg width="44" height="44" viewBox="0 0 44 44" fill="none" xmlns="http://www.w3.org/2000/svg">
<g id="Group 1000001658">
<g id="Group 1000001654">
<circle id="Ellipse 1457" cx="22" cy="22" r="21.5" stroke="white"/>
<path id="Vector" d="M13.0602 19.556C12.4098 19.829 12.0061 20.315 12 21.003C11.9958 21.484 12.3204 22.1301 12.9708 22.3941C13.2387 22.5031 17.0002 23.009 17.0002 23.009C17.0002 23.009 17.9958 26.156 18.3546 27.262C18.4585 27.582 18.5177 27.739 18.7457 27.948C19.1325 28.302 19.7864 28.1911 20.0692 27.9071C20.8174 27.1571 22 26 22 26L22.4977 26.405C22.4977 26.405 24.7078 28.168 25.9159 28.998C26.6272 29.487 27.1209 29.997 27.9215 30C28.3293 30.002 28.9834 29.799 29.4158 29.304C29.7015 28.977 29.8848 28.454 29.9557 27.985C30.1169 26.92 32.008 15.404 32 15.001C31.9872 14.358 31.4463 13.996 30.9967 14C30.7143 14.003 30.4816 14.085 29.9638 14.243C25.9584 15.466 13.3255 19.445 13.0602 19.556ZM28 17C28 17 22.722 21.594 20.6129 23.708C19.9372 24.385 19.8895 25.547 19.8895 25.547L18.7993 22.059L28 17Z" fill="white"/>
</g>
</g>
</svg>
