<svg width="42" height="42" viewBox="0 0 42 42" fill="none" xmlns="http://www.w3.org/2000/svg">
<circle cx="20.9995" cy="21" r="21" fill="#2B2A29"/>
<circle cx="20.7723" cy="21.0324" r="14.6161" fill="#00702F"/>
<path d="M20.4817 1.80285L20.5728 4.11956C20.5728 4.12156 20.5728 4.12373 20.5727 4.12606H19.7817L19.7829 4.11956C20.1785 2.00589 19.4532 1.31262 19.041 1.23019V4.98507C19.041 4.97626 19.041 4.96759 19.041 4.95904H20.5158C20.6131 5.2541 20.8527 5.61192 20.9958 5.79852C21.1388 5.61192 21.3784 5.2541 21.4758 4.95904H22.9455C22.9456 4.96759 22.9456 4.97626 22.9456 4.98507V1.23019C22.5334 1.31262 21.808 2.00589 22.2037 4.11956L22.2049 4.12606H21.4189C21.4188 4.12373 21.4188 4.12156 21.4188 4.11956L21.5099 1.80285C21.5294 1.57726 21.4487 1.01283 20.9958 0.559906C20.5429 1.01283 20.4622 1.57726 20.4817 1.80285Z" fill="#F8000B"/>
<path d="M24.3953 17.9794C25.8639 17.5957 28.5475 16.624 32.3422 14.5985V20.9933V20.9998V27.3946C28.5508 25.3708 25.8686 24.3991 24.3991 24.0147L23.9107 23.8869L24.0423 24.3743C24.4447 25.8643 25.4176 28.5091 27.3943 32.2123H20.9995H20.993H14.5982C16.5749 28.5091 17.5478 25.8643 17.9502 24.3743L18.0818 23.8869L17.5934 24.0147C16.1239 24.3991 13.4417 25.3708 9.65026 27.3946V20.9998V20.9933V14.5985C13.445 16.624 16.1286 17.5957 17.5972 17.9794L18.085 18.1068L17.954 17.62C17.554 16.1326 16.5812 13.4827 14.5982 9.76766H20.993H20.9995H27.3943C25.4113 13.4827 24.4385 16.1326 24.0385 17.62L23.9075 18.1068L24.3953 17.9794Z" fill="white" stroke="black" stroke-width="0.585683"/>
<path d="M26.2469 4.74559L25.7617 4.58208L26.4732 2.4706L26.9585 2.63411L26.2469 4.74559ZM27.4437 2.79762L27.9342 2.96292L27.2227 5.0744L26.7321 4.90909L27.0421 3.98932L26.6422 3.85456L26.7608 3.50265L27.1607 3.63741L27.4437 2.79762Z" fill="#F8000B"/>
<path d="M29.6117 3.70897L29.1705 5.96502L28.6847 5.73534L28.7902 5.26865L28.3884 5.07865L28.6132 4.77419L28.8803 4.90046L29.1098 4.00694L28.0082 5.41547L27.5504 5.19901L29.014 3.42638L29.6117 3.70897Z" fill="#F8000B"/>
<path d="M30.6152 6.85449L29.9797 6.45393L30.1748 6.14454L30.5318 6.36957L31.5249 4.79407L31.9628 5.07011L30.9697 6.64562L31.1053 6.73113L30.6898 7.39037L30.3946 7.20434L30.6152 6.85449ZM29.9036 6.40592L29.4704 6.13288L30.6586 4.24798L31.0918 4.52102L29.9036 6.40592Z" fill="#F8000B"/>
<path d="M32.6117 5.54568L33.0295 5.86542L31.6753 7.63481L31.2575 7.31507L32.6117 5.54568Z" fill="#F8000B"/>
<path d="M33.1511 6.68393C33.4207 6.38911 33.7426 6.4026 34.1167 6.7244L33.8718 6.99222C33.7538 6.90723 33.6474 6.91663 33.5525 7.02044L32.795 7.84883C32.6975 7.9554 32.697 8.06296 32.7935 8.17148L32.5505 8.43723C32.2004 8.08914 32.1715 7.75523 32.4639 7.4355L33.1511 6.68393ZM33.9449 7.37925C34.0423 7.27268 34.0408 7.16455 33.9403 7.05487L34.1871 6.78497C34.5569 7.1282 34.6001 7.45484 34.3165 7.76488L33.6293 8.51645C33.3357 8.83756 32.9989 8.83204 32.619 8.49988L32.862 8.23413C32.9802 8.32443 33.0886 8.3156 33.1874 8.20764L33.9449 7.37925Z" fill="#F8000B"/>
<path d="M33.8665 9.69934L33.5318 9.31191L35.2177 7.85513L35.5525 8.24256L33.8665 9.69934ZM35.8872 8.62998L36.2257 9.02167L34.5398 10.4784L34.2013 10.0868L34.9357 9.45218L34.6598 9.13288L34.9408 8.89008L35.2167 9.20939L35.8872 8.62998Z" fill="#F8000B"/>
<path d="M37.2912 10.5167L35.7646 12.2353L35.463 11.7906L35.7911 11.4423L35.5416 11.0745L35.8899 10.9266L36.0558 11.171L36.7076 10.5182L35.0429 11.1713L34.7587 10.7522L36.9201 9.96951L37.2912 10.5167Z" fill="#F8000B"/>
<path d="M38.6725 12.9749L36.6921 13.996L36.4549 13.5359L38.1103 12.6824L37.9736 12.4174L38.2987 12.2498L38.6725 12.9749ZM36.2776 12.3264C36.3674 12.3982 36.4349 12.4247 36.4799 12.4057L38.0215 11.7122L38.2587 12.1723L36.8021 12.8219C36.4254 13.0162 36.1322 12.9099 35.9225 12.5032L36.2776 12.3264Z" fill="#F8000B"/>
<path d="M37.9385 14.6837L38.2863 14.5534L38.3485 14.7194C38.4406 14.9652 38.4572 15.1643 38.3981 15.3167C38.3397 15.4708 38.1989 15.5896 37.9759 15.6732C37.6071 15.8114 37.3318 15.6382 37.1502 15.1534L37.0929 15.0006L37.4433 14.8693L37.5055 15.0353C37.5351 15.1143 37.5776 15.1635 37.6329 15.1828C37.6882 15.2022 37.7606 15.195 37.8502 15.1615C37.9257 15.1332 37.9768 15.093 38.0033 15.041C38.0299 14.989 38.029 14.9252 38.0007 14.8497L37.9385 14.6837ZM36.8816 14.4369L38.9681 13.655L39.1468 14.1318L37.0603 14.9137L36.8816 14.4369Z" fill="#F8000B"/>
<path d="M37.6588 16.7467L37.5349 16.2499L39.6968 15.7107L39.8207 16.2075L37.6588 16.7467ZM39.9446 16.7043L40.0699 17.2065L37.908 17.7458L37.7827 17.2435L38.7245 17.0086L38.6223 16.5992L38.9827 16.5093L39.0848 16.9187L39.9446 16.7043Z" fill="#F8000B"/>
<path d="M39.4023 18.6096L39.4888 19.2338L39.121 19.2848L39.0344 18.6606L39.4023 18.6096ZM40.2773 18.4882L40.3693 19.1514L39.9986 19.2028L39.9067 18.5396L40.2773 18.4882ZM38.1622 19.4575L38.0703 18.7943L38.452 18.7413L38.544 19.4046L38.1622 19.4575ZM40.2665 18.4102L38.0594 18.7163L37.9887 18.2063L40.1957 17.9002L40.2665 18.4102Z" fill="#F8000B"/>
<path d="M39.9062 21.0278C40.3054 21.0417 40.504 21.2953 40.5019 21.7888L40.1392 21.7762C40.1273 21.6313 40.0511 21.5564 39.9105 21.5516L38.7887 21.5127C38.6444 21.5077 38.5622 21.5771 38.5422 21.7209L38.1823 21.7084C38.22 21.2162 38.4554 20.9775 38.8883 20.9925L39.9062 21.0278ZM39.8921 22.083C40.0364 22.088 40.1177 22.0166 40.136 21.869L40.5015 21.8817C40.4803 22.3858 40.2597 22.6305 39.8399 22.616L38.822 22.5807C38.3872 22.5656 38.1729 22.3058 38.1791 21.8012L38.539 21.8137C38.547 21.9622 38.6241 22.039 38.7703 22.0441L39.8921 22.083Z" fill="#F8000B"/>
<path d="M38.955 23.7522L39.3222 23.8076L39.2958 23.9828C39.2567 24.2425 39.1742 24.4245 39.0485 24.5288C38.9225 24.635 38.7417 24.6703 38.5062 24.6348C38.1167 24.5761 37.9606 24.2908 38.0377 23.779L38.062 23.6176L38.432 23.6734L38.4056 23.8487C38.393 23.9321 38.4062 23.9957 38.4451 24.0395C38.484 24.0833 38.5508 24.1124 38.6454 24.1266C38.7251 24.1387 38.7893 24.1284 38.8378 24.0959C38.8863 24.0634 38.9166 24.0072 38.9286 23.9275L38.955 23.7522ZM38.1518 23.0223L40.355 23.3544L40.2791 23.8579L38.0759 23.5258L38.1518 23.0223ZM40.2665 23.9414L40.1667 24.6035L39.7968 24.5477L39.8966 23.8856L40.2665 23.9414Z" fill="#F8000B"/>
<path d="M39.6552 25.4819L39.6893 25.3367L40.0591 25.4234L39.9537 25.8726L39.5949 25.7884L39.316 25.4745L39.3706 25.2417L39.6552 25.4819Z" fill="#F8000B"/>
<path d="M39.223 26.265C39.5869 26.3834 39.7043 26.677 39.5755 27.1459L39.2277 27.0327C39.254 26.8973 39.2047 26.8093 39.0799 26.7687L38.7348 26.6564L38.565 27.1781L38.2119 27.0632L38.3816 26.5415L37.9777 26.4101C37.8599 26.3718 37.771 26.4148 37.7108 26.5392L37.3684 26.4278C37.5365 25.9717 37.8194 25.8083 38.2171 25.9377L39.223 26.265ZM37.6786 26.6382C37.6452 26.7832 37.6901 26.8757 37.8131 26.9157L38.1048 27.0106L37.9394 27.5189L37.712 27.4449C37.316 27.3161 37.1908 27.01 37.3362 26.5268L37.6786 26.6382ZM39.5459 27.2457C39.3863 27.7243 39.112 27.9004 38.7232 27.7739L38.5253 27.7095L38.6906 27.2012L38.9154 27.2743C39.0509 27.3184 39.1452 27.2712 39.1981 27.1326L39.5459 27.2457Z" fill="#F8000B"/>
<path d="M36.6215 27.5121L37.3301 27.8496L37.3228 27.8649L37.3254 27.8661L37.2794 27.9626C37.2601 28.0032 37.2511 28.0416 37.2527 28.0776C37.2542 28.1137 37.273 28.1527 37.309 28.1948C37.3443 28.2386 37.4005 28.2862 37.4779 28.3376C37.5561 28.3914 37.6609 28.4549 37.7923 28.5279L38.8078 29.052L38.48 29.7404L38.1422 29.5795L38.2619 29.328L37.6979 29.0532C37.5233 28.9575 37.3774 28.8714 37.2601 28.7948C37.1438 28.7206 37.051 28.6494 36.9817 28.5811L36.8135 28.9342L36.4732 28.7721L36.8579 27.9644L36.4908 27.7864L36.6215 27.5121ZM36.2542 29.2318L36.426 28.8711L38.4376 29.8293L38.2175 30.2915L36.5462 29.4955L36.4724 29.6504L35.7638 29.3129L35.8859 29.0564L36.2542 29.2318Z" fill="#F8000B"/>
<path d="M35.6158 30.3156L35.8937 29.8855L37.7652 31.0947L37.4873 31.5247L35.6158 30.3156ZM37.2095 31.9548L36.9285 32.3896L35.057 31.1804L35.338 30.7456L36.1532 31.2724L36.3822 30.9179L36.6941 31.1194L36.4651 31.4739L37.2095 31.9548Z" fill="#F8000B"/>
<path d="M35.7935 33.832L33.7153 32.8493L34.0575 32.435L34.4839 32.6521L34.7669 32.3093L35.0067 32.6022L34.8186 32.83L35.6282 33.2723L34.534 31.858L34.8564 31.4675L36.2145 33.3222L35.7935 33.832Z" fill="#F8000B"/>
<path d="M33.1071 33.4497L33.4768 33.0955L35.0182 34.7045L34.6484 35.0587L33.1071 33.4497ZM34.2787 35.4129L33.9048 35.771L32.3635 34.1619L32.7373 33.8039L33.4087 34.5048L33.7135 34.2128L33.9704 34.481L33.6656 34.7729L34.2787 35.4129Z" fill="#F8000B"/>
<path d="M31.596 34.7765L32.0045 34.4678L33.3481 36.2452L32.9397 36.554L31.596 34.7765ZM32.5312 36.8627L32.1183 37.1749L30.7747 35.3974L31.1876 35.0853L31.7729 35.8596L32.1095 35.6051L32.3335 35.9013L31.9968 36.1558L32.5312 36.8627Z" fill="#F8000B"/>
<path d="M30.219 37.2924L30.0311 36.9721L30.1839 36.8824C30.3182 36.8036 30.3369 36.6817 30.2401 36.5168L29.9852 36.0824C29.9482 36.0193 29.9312 35.9663 29.9342 35.9232L30.3831 35.6598C30.3822 35.6842 30.3887 35.7119 30.4025 35.743C30.4148 35.7749 30.4318 35.8095 30.4536 35.8467L30.7014 36.2689C30.8295 36.4873 30.8223 36.6677 30.6797 36.8101C30.7823 36.7738 30.8743 36.7785 30.9555 36.8243C31.0361 36.8727 31.1134 36.96 31.1875 37.0862C31.3868 37.4259 31.2632 37.7267 30.8168 37.9887L30.6761 38.0713L30.4867 37.7486L30.6396 37.6589C30.7123 37.6162 30.7535 37.5659 30.7631 37.5081C30.7727 37.4503 30.7533 37.3801 30.7048 37.2976C30.664 37.2281 30.6157 37.1847 30.5599 37.1674C30.5041 37.1501 30.4414 37.1619 30.3719 37.2027L30.219 37.2924ZM30.1568 38.376L29.0291 36.4543L29.4683 36.1966L30.596 38.1183L30.1568 38.376Z" fill="#F8000B"/>
<path d="M27.8947 39.3878L27.1344 37.2934L27.6131 37.1196L28.3734 39.214L27.8947 39.3878ZM27.3327 38.6311C27.2569 38.6586 27.2078 38.6994 27.1855 38.7533C27.1632 38.8073 27.1658 38.8722 27.1934 38.948C27.226 39.0379 27.2676 39.0977 27.3182 39.1272C27.3689 39.1567 27.4338 39.157 27.5132 39.1282L27.6798 39.0678L27.8074 39.4195L27.6541 39.4752C27.1675 39.6518 26.857 39.555 26.7226 39.1848C26.6234 38.9115 26.6614 38.7221 26.8366 38.6166C26.7272 38.6284 26.6301 38.6028 26.5453 38.5398C26.4588 38.4774 26.3897 38.3748 26.3378 38.232C26.199 37.8495 26.3737 37.5695 26.862 37.3923L27.0472 37.3251L27.1748 37.6768L26.9976 37.7411C26.8319 37.8013 26.7807 37.9186 26.8441 38.0931C26.9126 38.2818 27.0332 38.3447 27.206 38.282L27.3726 38.2215L27.4993 38.5706L27.3327 38.6311Z" fill="#F8000B"/>
<path d="M25.431 39.229L24.819 39.3793L24.7304 39.0187L25.3424 38.8684L25.431 39.229ZM25.6416 40.0869L24.9913 40.2466L24.9021 39.8832L25.5524 39.7236L25.6416 40.0869ZM24.4601 38.0827L25.1103 37.9231L25.2022 38.2974L24.552 38.457L24.4601 38.0827ZM25.7181 40.0682L25.1868 37.9043L25.6868 37.7815L26.2181 39.9454L25.7181 40.0682Z" fill="#F8000B"/>
<path d="M22.8881 40.5746L22.8365 40.204L24.4081 39.9853L24.4597 40.3559L22.8881 40.5746ZM23.8666 39.9726L23.3595 40.0432L23.116 38.2933L23.6231 38.2227L23.8666 39.9726Z" fill="#F8000B"/>
<path d="M21.6636 39.7556L21.0339 39.7782L21.0206 39.4071L21.6503 39.3845L21.6636 39.7556ZM21.6953 40.6384L21.0261 40.6624L21.0127 40.2885L21.6819 40.2645L21.6953 40.6384ZM20.9463 38.4357L21.6155 38.4117L21.6293 38.7969L20.9601 38.8209L20.9463 38.4357ZM21.774 40.6356L21.6942 38.4089L22.2087 38.3905L22.2885 40.6172L21.774 40.6356Z" fill="#F8000B"/>
<path d="M19.879 40.6212L20.0311 38.3983L20.5391 38.4331L20.3871 40.656L19.879 40.6212ZM19.6712 39.7018C19.5908 39.6963 19.5294 39.7138 19.4872 39.7541C19.4449 39.7945 19.4211 39.8549 19.4156 39.9353C19.409 40.0307 19.4229 40.1022 19.4573 40.1497C19.4917 40.1971 19.5509 40.2237 19.6351 40.2295L19.812 40.2416L19.7864 40.6149L19.6236 40.6038C19.1072 40.5684 18.8624 40.3543 18.8893 39.9613C18.9055 39.7237 18.9791 39.5549 19.1101 39.4548C19.2391 39.3546 19.4346 39.3134 19.6966 39.3313L19.8734 39.3434L19.8481 39.7139L19.6712 39.7018Z" fill="#F8000B"/>
<path d="M17.1258 40.2681L16.974 37.9744L17.5024 38.0718L17.52 38.55L17.9572 38.6306L17.8179 38.9826L17.5274 38.929L17.5345 39.8515L18.2383 38.2076L18.7363 38.2995L17.776 40.3881L17.1258 40.2681Z" fill="#F8000B"/>
<path d="M16.1552 37.735L16.6445 37.8859L15.9881 40.0151L15.4988 39.8643L16.1552 37.735ZM15.0095 39.7134L14.5148 39.5609L15.1713 37.4317L15.6659 37.5842L15.38 38.5117L15.7832 38.636L15.6738 38.9909L15.2706 38.8666L15.0095 39.7134Z" fill="#F8000B"/>
<path d="M13.9074 39.3209L13.4199 39.123L14.2582 37.0585L14.7456 37.2565L13.9074 39.3209Z" fill="#F8000B"/>
<path d="M12.3578 38.6385L13.3732 36.6552L13.8265 36.8872L12.8111 38.8705L12.3578 38.6385ZM12.529 37.7116C12.4572 37.6748 12.3939 37.6667 12.3392 37.6871C12.2845 37.7076 12.2388 37.7537 12.202 37.8255C12.1584 37.9106 12.1431 37.9818 12.156 38.0389C12.1688 38.0961 12.2128 38.1439 12.288 38.1823L12.4457 38.2631L12.2752 38.5962L12.13 38.5218C11.6692 38.2859 11.5285 37.9927 11.708 37.6421C11.8405 37.3833 12.005 37.2821 12.2016 37.3385C12.1184 37.2664 12.071 37.1779 12.0595 37.0729C12.0462 36.9671 12.0742 36.8466 12.1434 36.7114C12.3289 36.3491 12.6529 36.2864 13.1153 36.5231L13.2906 36.6129L13.1201 36.9459L12.9523 36.86C12.7954 36.7797 12.6746 36.8221 12.59 36.9874C12.4985 37.166 12.5346 37.2972 12.6982 37.381L12.856 37.4618L12.6868 37.7923L12.529 37.7116Z" fill="#F8000B"/>
<path d="M9.32008 36.7738L10.6799 35.0087L11.0833 35.3195L9.72345 37.0846L9.32008 36.7738ZM9.65728 35.8936C9.59339 35.8444 9.53269 35.8248 9.47516 35.8349C9.41763 35.8451 9.36426 35.8821 9.31504 35.946C9.25666 36.0218 9.22859 36.0889 9.23084 36.1475C9.23308 36.206 9.26763 36.261 9.33449 36.3126L9.47489 36.4207L9.24653 36.7171L9.11727 36.6175C8.70721 36.3016 8.62237 35.9877 8.86274 35.6756C9.04017 35.4454 9.22038 35.3759 9.40339 35.4671C9.33473 35.3811 9.30427 35.2854 9.31201 35.1801C9.31827 35.0736 9.36775 34.9602 9.46047 34.8399C9.70886 34.5175 10.0388 34.5148 10.4504 34.8319L10.6064 34.9521L10.378 35.2485L10.2287 35.1334C10.089 35.0258 9.96256 35.0456 9.84924 35.1927C9.72676 35.3516 9.73832 35.4872 9.88392 35.5994L10.0243 35.7076L9.79768 36.0017L9.65728 35.8936Z" fill="#F8000B"/>
<path d="M7.99371 35.687L7.6066 35.3307L9.11545 33.6912L9.50256 34.0475L7.99371 35.687Z" fill="#F8000B"/>
<path d="M6.40374 34.6279C6.42735 34.6065 6.44043 34.5832 6.44297 34.5581C6.44426 34.5316 6.42159 34.4927 6.37495 34.4413C6.32832 34.3899 6.29176 34.3636 6.26526 34.3623C6.23751 34.3596 6.21183 34.369 6.18822 34.3904L5.98215 34.1633C6.0127 34.1356 6.04817 34.1161 6.08855 34.1048C6.12768 34.0921 6.17089 34.0908 6.21819 34.1011C6.26423 34.11 6.31367 34.131 6.3665 34.1641C6.41807 34.1958 6.47158 34.2422 6.52704 34.3033C6.5825 34.3644 6.62351 34.4222 6.65008 34.4766C6.67665 34.531 6.69212 34.5815 6.6965 34.6282C6.70087 34.6749 6.69547 34.7178 6.6803 34.7569C6.66386 34.7946 6.64036 34.8273 6.60981 34.855L6.40374 34.6279ZM6.79349 34.5174L8.44354 33.0201L8.77061 33.3805L7.12056 34.8778L6.79349 34.5174ZM6.01648 33.6611L7.66653 32.1638L7.98792 32.518L6.33787 34.0153L6.01648 33.6611ZM7.72465 33.5926L6.50863 33.9439L7.08365 33.4221L8.29342 33.0765L7.72465 33.5926Z" fill="#F8000B"/>
<path d="M7.06887 31.3676L7.3651 31.7853L5.54772 33.0744L5.25149 32.6567L7.06887 31.3676ZM4.95526 32.2391L4.65578 31.8169L6.47316 30.5278L6.77264 30.95L5.98098 31.5115L6.22513 31.8557L5.92223 32.0706L5.67808 31.7264L4.95526 32.2391Z" fill="#F8000B"/>
<path d="M4.02964 30.7625L5.98823 29.7002L6.22028 30.128L4.26169 31.1903L4.02964 30.7625ZM3.47835 29.7461L5.43694 28.6838L5.66496 29.1042L3.70638 30.1665L3.47835 29.7461ZM5.15387 30.0855L3.88921 30.1378L4.57175 29.7676L5.82899 29.7193L5.15387 30.0855Z" fill="#F8000B"/>
<path d="M4.62329 26.4854C4.76707 26.9691 4.64078 27.2748 4.24441 27.4023L4.01676 27.4755L3.85308 26.9666L4.145 26.8727C4.2682 26.8331 4.31336 26.7408 4.28049 26.5957L4.62329 26.4854ZM2.75929 27.085C2.8118 27.2238 2.9059 27.2713 3.0416 27.2277L3.26656 27.1553L3.43025 27.6642L3.23206 27.7279C2.84283 27.8531 2.56919 27.6761 2.41113 27.197L2.75929 27.085ZM3.71377 25.918C3.92981 25.8485 4.10923 25.8489 4.25202 25.9192C4.39425 25.9877 4.50419 26.1366 4.58185 26.3658L4.22833 26.4795C4.16931 26.3389 4.05767 26.295 3.89341 26.3478C3.77557 26.3857 3.6967 26.4407 3.65679 26.5126C3.61631 26.5828 3.61503 26.6768 3.65293 26.7946L3.70204 26.9472L3.35388 27.0592L3.3108 26.9253C3.27807 26.8236 3.23045 26.7551 3.16794 26.7201C3.10544 26.685 3.0233 26.6839 2.92153 26.7166C2.7662 26.7666 2.69948 26.8501 2.72138 26.9672L2.38125 27.0766C2.2586 26.6708 2.39903 26.403 2.80254 26.2732C2.99537 26.2111 3.16474 26.2355 3.31068 26.3461C3.34545 26.1419 3.47981 25.9992 3.71377 25.918Z" fill="#F8000B"/>
<path d="M1.80984 24.5991L3.88741 23.6151L3.99087 24.1424L3.55264 24.3345L3.63823 24.7707L3.25974 24.7704L3.20286 24.4805L2.34751 24.8261L4.13496 24.8768L4.23247 25.3737L1.93714 25.2478L1.80984 24.5991Z" fill="#F8000B"/>
<path d="M3.74192 21.6458L3.74814 22.1578L1.52017 22.1849L1.51395 21.6729L3.74192 21.6458ZM1.50772 21.1609L1.50144 20.6433L3.72941 20.6162L3.7357 21.1338L2.76518 21.1456L2.77031 21.5676L2.39898 21.5721L2.39385 21.1501L1.50772 21.1609Z" fill="#F8000B"/>
<path d="M2.47501 19.4321L2.53446 18.8047L2.90416 18.8398L2.84471 19.4671L2.47501 19.4321ZM1.59557 19.3488L1.65873 18.6822L2.03124 18.7175L1.96807 19.3841L1.59557 19.3488ZM3.87694 18.8924L3.81377 19.559L3.43007 19.5226L3.49323 18.856L3.87694 18.8924ZM1.58814 19.4272L3.80634 19.6374L3.75777 20.1499L1.53957 19.9397L1.58814 19.4272Z" fill="#F8000B"/>
<path d="M4.12327 17.7683C4.01105 18.2603 3.75098 18.4646 3.34308 18.381L3.1088 18.3331L3.21602 17.8094L3.51644 17.8709C3.64322 17.8969 3.7279 17.8386 3.77048 17.6961L4.12327 17.7683ZM2.205 17.3756C2.18263 17.5222 2.24126 17.6098 2.38091 17.6384L2.61242 17.6858L2.50521 18.2095L2.30126 18.1677C1.9007 18.0857 1.74918 17.7972 1.8467 17.3022L2.205 17.3756ZM3.60946 16.8274C3.83179 16.873 3.9879 16.9614 4.07779 17.0928C4.16805 17.2223 4.19076 17.4059 4.1459 17.6437L3.78209 17.5692C3.7997 17.4178 3.72399 17.3247 3.55494 17.2901C3.43367 17.2653 3.338 17.2744 3.26791 17.3175C3.19821 17.3587 3.15094 17.44 3.12611 17.5613L3.09395 17.7184L2.73565 17.645L2.76386 17.5072C2.7853 17.4025 2.77741 17.3195 2.74017 17.2583C2.70293 17.197 2.63194 17.1557 2.52721 17.1343C2.36735 17.1015 2.26822 17.1415 2.22982 17.2543L1.8798 17.1826C1.97216 16.7689 2.22598 16.6045 2.64123 16.6895C2.83968 16.7301 2.9753 16.8345 3.0481 17.0026C3.17867 16.8417 3.36579 16.7833 3.60946 16.8274Z" fill="#F8000B"/>
<path d="M2.59906 14.7438L4.89206 14.9065L4.72333 15.4167L4.24726 15.3689L4.10769 15.7909L3.77808 15.6048L3.87084 15.3244L2.956 15.2055L4.48835 16.1272L4.32934 16.608L2.39146 15.3714L2.59906 14.7438Z" fill="#F8000B"/>
<path d="M3.70674 12.1517L5.72326 13.0994L5.50307 13.5679L3.81755 12.7757L3.6907 13.0456L3.3597 12.89L3.70674 12.1517ZM4.65223 14.4456C4.65447 14.3306 4.63432 14.2611 4.59179 14.2369L3.10242 13.4374L3.32261 12.969L4.72541 13.7278C5.10902 13.9081 5.2035 14.2053 5.00884 14.6195L4.65223 14.4456Z" fill="#F8000B"/>
<path d="M5.12239 11.4767L5.45142 10.9392L5.76814 11.1331L5.43911 11.6706L5.12239 11.4767ZM4.36898 11.0154L4.71857 10.4444L5.03769 10.6397L4.6881 11.2108L4.36898 11.0154ZM6.61889 11.6077L6.2693 12.1788L5.94058 11.9776L6.29018 11.4065L6.61889 11.6077ZM4.32785 11.0826L6.22817 12.246L5.95937 12.6851L4.05904 11.5217L4.32785 11.0826Z" fill="#F8000B"/>
<path d="M7.56504 10.3369L5.85387 8.90984L6.18902 8.50798L7.90019 9.93504L7.56504 10.3369ZM6.86243 8.97434L6.72031 8.55176L8.64435 9.04273L8.29299 9.46404L7.30036 9.20036L7.35288 9.38336L6.86243 8.97434ZM6.92404 9.89758L6.73458 9.87877L7.17224 10.8079L6.82088 11.2292L5.99236 9.42463L6.43359 9.48856L6.92404 9.89758ZM5.48449 9.35276L5.88178 9.41667L6.07469 9.84863L5.13854 9.76759L5.48449 9.35276ZM6.90435 7.65023L7.15219 8.55661L6.69261 8.44441L6.5584 8.06506L6.90435 7.65023Z" fill="#F8000B"/>
<path d="M9.41775 8.37847L9.03278 8.71606L7.56375 7.04078L7.94872 6.7032L9.41775 8.37847ZM8.3337 6.36562L8.7229 6.02433L10.1919 7.6996L9.80273 8.04089L9.16281 7.31113L8.84552 7.58936L8.60068 7.31015L8.91797 7.03192L8.3337 6.36562Z" fill="#F8000B"/>
<path d="M9.24498 5.63269L9.66906 5.32137L10.9876 7.11747L10.5635 7.4288L9.24498 5.63269Z" fill="#F8000B"/>
<path d="M10.8767 4.46802C11.3098 4.20933 11.6325 4.25472 11.8448 4.60419L11.9528 4.78213L11.496 5.0596L11.3733 4.85761C11.2993 4.73578 11.197 4.71012 11.0665 4.78062L10.8767 4.46802ZM11.896 6.14642C12.0158 6.05828 12.0422 5.95891 11.975 5.8483L11.8158 5.5862L12.2727 5.30873L12.3968 5.51312C12.6129 5.869 12.5083 6.18269 12.0829 6.4542L11.896 6.14642ZM10.4818 5.42209C10.2832 5.09506 10.3856 4.79585 10.7892 4.52446L10.979 4.83706C10.8707 4.92255 10.8507 5.02141 10.9188 5.13362L11.5205 6.12431C11.5848 6.23011 11.6803 6.25549 11.807 6.20045L11.994 6.50824C11.569 6.74437 11.248 6.68369 11.0309 6.32621L10.4818 5.42209Z" fill="#F8000B"/>
<path d="M13.5405 3.1602L13.6973 3.49992L12.2567 4.16497L12.0999 3.82525L13.5405 3.1602ZM12.7786 4.02011L13.2435 3.8055L13.984 5.40958L13.5191 5.62419L12.7786 4.02011Z" fill="#F8000B"/>
<path d="M15.1102 4.00011L14.9925 3.6479L15.1606 3.59172C15.4096 3.50849 15.6092 3.49914 15.7593 3.56367C15.9112 3.62761 16.0249 3.77253 16.1004 3.99844C16.2252 4.372 16.0422 4.64081 15.5512 4.80489L15.3965 4.85661L15.2779 4.50174L15.446 4.44556C15.526 4.41881 15.5767 4.37814 15.598 4.32356C15.6193 4.26898 15.6148 4.19632 15.5845 4.1056C15.5589 4.02911 15.5206 3.97666 15.4696 3.94823C15.4186 3.9198 15.3548 3.91836 15.2783 3.94393L15.1102 4.00011ZM14.8255 5.04744L14.1192 2.93419L14.6022 2.77279L15.3084 4.88604L14.8255 5.04744Z" fill="#F8000B"/>
</svg>
