<svg width="44" height="44" viewBox="0 0 44 44" fill="none" xmlns="http://www.w3.org/2000/svg">
<g id="_&#208;&#160;&#208;&#181;&#208;&#182;&#208;&#184;&#208;&#188;_&#208;&#184;&#208;&#183;&#208;&#190;&#208;&#187;&#209;&#143;&#209;&#134;&#208;&#184;&#208;&#184;" clip-path="url(#clip0_3_2196)">
<path id="Vector" d="M0 44C0.976987 38.3654 3.42118 33.5344 7.41982 29.5151C11.4162 25.4981 16.2334 23.0252 21.9001 22.0126C13.7456 20.4306 7.53807 16.1725 3.29259 9.12811C1.60956 6.33262 0.548766 3.29145 0.0195168 0.0551098C9.01905 1.22382 19.6901 8.80207 22.0011 21.8025C23.0241 16.2391 25.4866 11.4231 29.4956 7.43016C33.5115 3.43036 38.3378 0.988471 44 -0.00114441C43.0161 5.65183 40.5719 10.4736 36.5767 14.4883C32.5815 18.5031 27.7643 20.9748 22.1906 21.9954C29.2235 23.3294 34.8937 26.8252 39.1794 32.5425C41.5478 35.7019 43.9943 41.5891 43.9506 43.9874C39.8705 43.2974 36.1462 41.7797 32.7928 39.3688C27.7632 35.7524 24.3937 30.7378 22.8473 25.5532C22.9207 25.5876 22.9908 25.6485 23.0275 25.6324C23.1664 25.5716 23.295 25.4855 23.427 25.4097C23.3593 25.3121 23.3111 25.1847 23.2181 25.1227C23.0493 25.0079 22.8473 24.9436 22.6739 24.8345C22.6154 24.7978 22.5844 24.6945 22.566 24.6152C22.3995 23.8908 22.2399 23.1641 22.0769 22.4386C22.0597 22.3616 22.0379 22.2859 21.9954 22.2112C20.8554 28.359 17.9922 33.5321 13.3208 37.6789C9.51271 41.0599 5.06747 43.1263 0 43.9989L0 44ZM11.3817 13.3828C10.9122 13.2519 10.5058 13.3219 10.4587 13.8569C10.7698 13.9074 11.2508 13.6686 11.3817 13.3828Z" fill="#414141"/>
<path id="Vector_2" d="M4.17885 19.2192C5.75856 19.2433 6.94794 20.4786 6.92153 22.0652C6.89628 23.576 5.63113 24.7998 4.1203 24.7769C2.56011 24.7528 1.35236 23.4957 1.37532 21.9194C1.39713 20.4097 2.65884 19.1951 4.18 19.218L4.17885 19.2192Z" fill="#414141"/>
<path id="Vector_3" d="M24.742 39.8376C24.835 41.1154 23.7134 42.6044 21.9913 42.6044C20.4437 42.6044 19.1912 41.3576 19.1993 39.8204C19.2061 38.2889 20.4449 37.0616 21.9798 37.0536C23.6962 37.0455 24.8453 38.5357 24.742 39.8364V39.8376Z" fill="#414141"/>
<path id="Vector_4" d="M37.0553 21.951C37.0874 20.384 38.3365 19.1762 39.8818 19.2187C41.4305 19.26 42.6486 20.5137 42.6141 22.0303C42.5797 23.5744 41.2927 24.8189 39.7761 24.7752C38.2297 24.7305 37.0243 23.4791 37.0553 21.951Z" fill="#414141"/>
<path id="Vector_5" d="M24.7573 4.18399C24.7205 5.74992 23.4623 6.96685 21.9285 6.91863C20.3763 6.86926 19.1594 5.6156 19.1961 4.10477C19.234 2.57098 20.5015 1.33224 22.0065 1.35865C23.5598 1.3862 24.7917 2.65249 24.7561 4.18513L24.7573 4.18399Z" fill="#414141"/>
</g>
<defs>
<clipPath id="clip0_3_2196">
<rect width="44" height="44.0011" fill="white" transform="translate(0 -0.00114441)"/>
</clipPath>
</defs>
</svg>
