<svg width="39" height="44" viewBox="0 0 39 44" fill="none" xmlns="http://www.w3.org/2000/svg">
<path id="Vector" d="M20.1459 20.5151C20.4793 20.582 20.7803 20.6407 21.1177 20.7076C21.2571 20.3752 21.4026 20.0407 21.54 19.7042C23.1886 15.7045 24.8373 11.7069 26.4859 7.7073C26.6414 7.33227 26.7869 6.95116 26.9566 6.58221C27.0354 6.41193 27.0092 6.31665 26.8718 6.18691C26.1323 5.48145 25.8838 4.60976 26.1586 3.63469C26.4334 2.65556 27.1122 2.05754 28.1103 1.84874C29.4457 1.56696 30.8398 2.54203 31.0479 3.89417C31.2681 5.32941 30.3004 6.65925 28.9144 6.8194C28.7992 6.83359 28.676 6.87616 28.5689 6.8498C28.2456 6.76669 28.1588 6.96333 28.0577 7.20456C26.2172 11.6786 24.3685 16.1505 22.5239 20.6225C22.4471 20.809 22.3744 20.9955 22.2956 21.1942C22.5744 21.3827 22.8371 21.5591 23.1199 21.7516C23.1967 21.6807 23.2735 21.6118 23.3462 21.5388C26.8516 18.0216 30.3569 14.5045 33.8663 10.9913C34.0279 10.8292 34.0583 10.7096 33.9613 10.4947C33.537 9.54799 33.7269 8.44317 34.4603 7.71947C35.226 6.96333 36.1433 6.76263 37.1616 7.12753C38.0788 7.45796 38.7314 8.38641 38.7758 9.38581C38.8567 11.2143 36.9737 12.5239 35.2826 11.7982C35.028 11.6887 34.8987 11.7333 34.7169 11.9157C31.2378 15.4167 27.7506 18.9136 24.2655 22.4085C24.1907 22.4835 24.0998 22.5422 23.9988 22.6233C25.2373 24.2897 25.6151 26.0939 25.007 28.042C24.3968 29.9962 23.0391 31.2409 21.1016 31.8916C27.0112 33.8479 30.5994 37.8414 31.8864 43.8986C31.8682 43.9331 31.85 43.9655 31.8298 44C31.2519 43.8622 30.66 43.7648 30.0963 43.5824C24.5887 41.8005 21.0996 38.1029 19.6752 32.4633C19.6732 32.4532 19.6732 32.443 19.6691 32.4349C19.6105 32.3275 19.5499 32.2221 19.4893 32.1146C19.4348 32.2261 19.3519 32.3336 19.3257 32.4511C18.0629 38.2144 13.3837 42.7898 7.61556 43.8926C7.46605 43.9209 7.31654 43.9432 7.09026 43.9818C8.39946 37.8394 11.9856 33.8458 17.8892 31.8916C15.9678 31.2429 14.6061 30.0043 13.9919 28.0521C13.3817 26.1121 13.7494 24.316 14.9657 22.6659C14.9031 22.595 14.8445 22.522 14.7778 22.4571C11.2603 18.9257 7.7388 15.3964 4.22536 11.859C4.06575 11.6988 3.94655 11.6948 3.7526 11.7819C2.80504 12.2077 1.70797 12.0029 0.986699 11.2853C0.235118 10.5352 0.0169176 9.45271 0.423013 8.49385C0.825069 7.54918 1.76858 6.93292 2.78685 6.95319C4.56883 6.98563 5.75883 8.83644 5.03756 10.4805C4.93654 10.7116 4.97694 10.8332 5.14059 10.9995C8.64393 14.5065 12.1412 18.0176 15.6365 21.5287C15.7112 21.6037 15.7577 21.705 15.8102 21.7861C16.1153 21.5874 16.3618 21.4496 16.578 21.2732C16.6365 21.2266 16.6386 21.0462 16.6002 20.955C16.1375 19.8076 15.6607 18.6622 15.19 17.5189C13.7575 14.0483 12.3251 10.5778 10.8966 7.10523C10.8179 6.91265 10.731 6.83359 10.4966 6.84575C9.12074 6.9167 7.957 5.79161 7.90851 4.37056C7.86204 3.01842 8.99143 1.83657 10.3532 1.81225C11.4442 1.794 12.3715 2.40419 12.7635 3.39953C13.1474 4.37664 12.8968 5.48551 12.1129 6.19502C11.9796 6.31665 11.9715 6.40382 12.0382 6.56397C13.2787 9.55812 14.5111 12.5563 15.7476 15.5525C16.4264 17.1986 17.1134 18.8406 17.7841 20.4887C17.8609 20.6793 17.9377 20.7137 18.1235 20.659C18.3539 20.5921 18.5963 20.5617 18.8691 20.509V20.1644C18.8691 15.2099 18.867 10.2555 18.8751 5.30103C18.8751 5.04358 18.7943 4.93817 18.5579 4.84694C17.3821 4.39488 16.7578 3.12992 17.0669 1.87712C17.3679 0.656752 18.5236 -0.123714 19.8186 0.0161614C21.0086 0.143874 21.9522 1.17977 21.9966 2.40621C22.039 3.54549 21.4208 4.48002 20.3439 4.88546C20.1843 4.94628 20.1237 5.02128 20.1237 5.19765C20.1278 10.2291 20.1278 15.2626 20.1278 20.2941C20.1278 20.361 20.1358 20.4279 20.1419 20.513L20.1459 20.5151ZM25.4333 36.5927C25.3585 36.4062 25.3161 36.244 25.2353 36.1041C25.1241 35.9136 24.9484 35.9683 24.8069 36.0615C24.6393 36.171 24.7443 36.2866 24.8332 36.3981C24.912 36.4933 24.9645 36.615 25.0534 36.6981C25.106 36.7467 25.213 36.7751 25.2797 36.7569C25.3424 36.7386 25.3868 36.6474 25.4333 36.5947V36.5927Z" fill="#414141"/>
</svg>
